<svg width="64" height="64" viewBox="0 0 16.933 16.933" xmlns="http://www.w3.org/2000/svg">
<path d="m8.4666 3.1072c-2.96 0-5.3595 2.3996-5.3595 5.3595.0064.4279.06409.85348.17174 1.2677.09837.01121.20009.02118.30774.02764 1.2197.07321 3.0866-.1211 5.0536-.64815 1.967-.52706 3.6807-1.2922 4.7004-1.9654.09617-.0635.18518-.12688.26853-.18895-.66908-2.2832-2.7632-3.852-5.1424-3.8524zm5.4151 1.4192c.33349.45569.61234.9588.82468 1.5022.14356.03939.27261.08244.38106.12901.3669.15757.47194.30681.49743.40191.02548.0951.0091.27689-.22984.59679-.23896.31991-.67901.7161-1.2763 1.1104-1.1944.78863-3.0058 1.5826-5.0919 2.1415-2.0861.55896-4.0519.77717-5.4807.69142-.71436-.04288-1.2936-.166-1.6605-.32356-.3669-.15757-.47199-.30677-.49747-.40187-.02548-.0951-.0091-.27689.22988-.59679.07066-.09459.16094-.19645.26563-.30238-.08775-.57681-.09772-1.152-.03672-1.7134-.53958.38483-.98088.78368-1.3023 1.214-.38098.51003-.61677 1.1257-.45073 1.7454.16604.61969.67811 1.035 1.263 1.2862.58496.25121 1.2924.38096 2.1088.42996.44926.02697.93443.02557 1.4438.000815a5.3595 5.3595 0 004.9841 1.2058 5.3595 5.3595 0 003.7134-3.5362c.45351-.23325.87437-.47465 1.25-.72265.68253-.45064 1.2303-.91678 1.6113-1.4268.38098-.51003.61677-1.1257.45073-1.7454-.16604-.61969-.67811-1.035-1.263-1.2862-.49338-.21188-1.0749-.33661-1.7344-.40011z" fill="#fff" fill-rule="evenodd"/>
</svg>
