<svg width="32" height="32" viewBox="0 0 32 32" xmlns="http://www.w3.org/2000/svg" fill="currentColor">
    <path d="m12 6.0002c-2.216 0-3.9999 1.7839-3.9999 3.9999v7.8497c1.733 0.18784 5.0105-0.01512 8.2586-0.88395 3.3645-0.90153 6.3995-2.441 7.7412-3.4731v-3.4928c0-2.216-1.7839-3.9999-3.9999-3.9999zm1.14e-4 3h7.9997a0.99998 0.99998 0 0 1 0.99976 1 0.99998 0.99998 0 0 1-0.99976 1h-7.9997a0.99998 0.99998 0 0 1-1.0001-1 0.99998 0.99998 0 0 1 1.0001-1zm14 1.4728v2.1351c0.44991 0.21468 0.59013 0.4142 0.62517 0.54501 0.03818 0.14211 0.01511 0.41337-0.34318 0.89087-0.35678 0.4775-1.0132 1.0691-1.9046 1.6577-1.7829 1.1772-4.487 2.362-7.6006 3.1963-3.1138 0.83433-6.048 1.1603-8.1804 1.0323-1.0663-0.06387-1.9309-0.24794-2.4785-0.48321-0.54765-0.23509-0.70446-0.45796-0.74249-0.59989-0.038173-0.14211-0.015118-0.41329 0.34318-0.8908 0.078614-0.10545 0.17461-0.21732 0.28195-0.3326v-2.6328c-0.77794 0.56107-1.4166 1.1425-1.8843 1.7687-0.56867 0.76127-0.92039 1.6802-0.67257 2.6051 0.24794 0.92496 1.0119 1.5449 1.885 1.9199 0.75549 0.32428 1.6557 0.50713 2.6719 0.59947v0.11604c0 2.216 1.7839 3.9999 3.9999 3.9999h7.9997c2.216 0 3.9999-1.7839 3.9999-3.9999v-3.7548c0.52857-0.2846 1.0271-0.57634 1.4791-0.87473 1.0188-0.67268 1.8366-1.3685 2.4053-2.1298 0.56867-0.76131 0.92039-1.6803 0.67256-2.6053-0.24794-0.92496-1.0119-1.5449-1.885-1.9198-0.21316-0.09147-0.43733-0.17159-0.67181-0.24264zm-14 2.5272h1.9998a0.99998 0.99998 0 0 1 0.99998 0.99972 0.99998 0.99998 0 0 1-0.99998 1.0001h-1.9998a0.99998 0.99998 0 0 1-1.0001-1.0001 0.99998 0.99998 0 0 1 1.0001-0.99972z"/>
</svg>
