<svg width="1024" height="1024" viewBox="0 0 270.93 270.93">
<path transform="scale(.26458)" d="m513.35 256.01c-3.6276-0.02018-7.269 0.03559-10.922 0.16992-19.155 0.71642-38.17 3.582-56.686 8.543-134.04 36.007-214.98 172.27-182.46 307.21 57.065 4.7058 157.53-2.365 257.01-29.02 99.472-26.653 190.01-70.76 237.08-103.37-32.075-108.68-131.56-182.91-244.02-183.53zm257.19 67.764c15.934 21.766 29.264 45.784 39.414 71.738 6.8948 1.8881 13.092 3.9529 18.295 6.1875 17.525 7.5263 22.543 14.655 23.76 19.197 1.2171 4.5423 0.43564 13.225-10.979 28.506-11.414 15.281-32.433 34.205-60.959 53.039-57.052 37.669-143.57 75.59-243.21 102.29-99.641 26.699-193.54 37.122-261.78 33.025-34.122-2.0481-61.787-7.9288-79.312-15.455s-22.545-14.653-23.762-19.195c-1.2171-4.5424-0.43369-13.225 10.98-28.506 3.3829-4.5287 7.7074-9.4059 12.723-14.479-4.1902-27.563-4.6312-55.034-1.7109-81.861-25.809 18.399-46.916 37.468-62.283 58.041-18.198 24.362-29.46 53.77-21.529 83.369 7.9312 29.599 32.39 49.436 60.33 61.436 27.94 11.999 61.731 18.196 100.73 20.537 21.459 1.288 44.632 1.2213 68.961 0.03906a256 256 0 0 0 238.07 57.596 256 256 0 0 0 177.37-168.91c21.662-11.141 41.764-22.672 59.705-34.518 32.601-21.525 58.765-43.789 76.963-68.15 18.198-24.362 29.46-53.77 21.529-83.369-7.9312-29.599-32.39-49.436-60.33-61.436-23.595-10.133-51.41-16.093-82.961-19.123z" fill="#fff"/>
</svg>
