<svg width="32" height="32" viewBox="0 0 32 32" xmlns="http://www.w3.org/2000/svg" fill="currentColor">
    <path d="m16 8c-4.4184 0-8 3.5818-8 8 0.011339 0.63872 0.095625 1.274 0.25626 1.8923 0.14665 0.01512 0.29859 0.03024 0.45938 0.0412 1.8206 0.10923 4.6074-0.18067 7.5434-0.96751 2.9361-0.78673 5.4941-1.9288 7.0161-2.9337 0.14363-0.09487 0.27629-0.18936 0.40083-0.28196-0.99873-3.4081-4.1247-5.7496-7.676-5.7503zm8.0831 2.1184c0.49778 0.68018 0.91399 1.4312 1.2309 2.2423 0.2143 0.05896 0.40695 0.12322 0.5688 0.19276 0.54767 0.23509 0.70448 0.45798 0.74251 0.5999 0.03817 0.14211 0.01512 0.4133-0.34319 0.89082-0.3568 0.47752-1.0135 1.0689-1.905 1.6575-1.7829 1.1772-4.4868 2.3623-7.6005 3.1966-3.1138 0.83435-6.0482 1.1601-8.181 1.0321-1.0663-0.063876-1.9309-0.24794-2.4786-0.48296-0.54767-0.23509-0.70452-0.4579-0.74255-0.59986-0.038174-0.14212-0.015118-0.4133 0.34319-0.89082 0.10545-0.14136 0.24038-0.2933 0.39652-0.45136-0.13115-0.861-0.14589-1.7195-0.054805-2.5575-0.80544 0.57447-1.4642 1.1698-1.9439 1.8121-0.56868 0.76133-0.92064 1.6803-0.67277 2.6053 0.24794 0.92503 1.0122 1.5449 1.8853 1.9199 0.87317 0.37494 1.9292 0.56865 3.1477 0.64182 0.67062 0.04044 1.3948 0.03817 2.1551 0.0012a8 8 0 0 0 7.4398 1.7999 8 8 0 0 0 5.5428-5.2786c0.67693-0.3481 1.3051-0.70849 1.8658-1.0787 1.0188-0.67266 1.8364-1.3685 2.4052-2.1297 0.56868-0.76133 0.92064-1.6803 0.67277-2.6053-0.24794-0.92498-1.0122-1.5449-1.8853-1.9199-0.73646-0.31636-1.6045-0.50246-2.5889-0.59726z"/>
</svg>
