<svg width="1024" height="1024" viewBox="0 0 270.93 270.93" xmlns="http://www.w3.org/2000/svg">
<path d="m101.6 50.799c-18.762 0-33.866 15.104-33.866 33.866v66.462c14.673 1.5887 42.423-0.11549 69.924-7.4842 28.486-7.6329 54.182-20.667 65.541-29.406v-29.572c0-18.762-15.104-33.866-33.866-33.866zm1e-3 25.4h67.732a8.4665 8.4665 0 0 1 8.4645 8.4666 8.4665 8.4665 0 0 1-8.4645 8.4671h-67.732a8.4665 8.4665 0 0 1-8.4671-8.4671 8.4665 8.4665 0 0 1 8.4671-8.4666zm118.53 12.47v18.077c3.8092 1.8168 4.9964 3.507 5.2932 4.6146 0.32202 1.2018 0.11319 3.4997-2.9068 7.5426-3.02 4.0429-8.5785 9.0514-16.126 14.035-15.095 9.9665-37.989 19.998-64.352 27.062-26.363 7.064-51.206 9.8237-69.262 8.7399-9.0279-0.54189-16.348-2.0999-20.985-4.0912-4.6368-1.9913-5.9643-3.8774-6.2864-5.0792-0.32202-1.2018-0.11526-3.4992 2.9047-7.5421 0.66734-0.89341 1.4789-1.84 2.3885-2.8168v-22.291c-6.5867 4.7504-11.994 9.6734-15.954 14.975-4.8147 6.4456-7.7926 14.226-5.6942 22.057 2.0984 7.8314 8.5676 13.08 15.96 16.255 6.3962 2.7469 14.018 4.2937 22.622 5.0756v0.98236c0 18.762 15.104 33.866 33.866 33.866h67.732c18.762 0 33.866-15.104 33.866-33.866v-31.791c4.4752-2.4109 8.6959-4.8796 12.523-7.4062 8.6256-5.6951 15.55-11.586 20.365-18.032 4.8147-6.4456 7.7926-14.226 5.6942-22.058-2.0984-7.8314-8.5676-13.08-15.96-16.255-1.8035-0.77453-3.7025-1.4543-5.688-2.0536zm-118.53 21.397h16.932a8.4665 8.4665 0 0 1 8.4666 8.4645 8.4665 8.4665 0 0 1-8.4666 8.4671h-16.932a8.4665 8.4665 0 0 1-8.4671-8.4671 8.4665 8.4665 0 0 1 8.4671-8.4645z" fill="#fff" fill-rule="evenodd"/>
</svg>
