<svg width="1024" height="1024" viewBox="0 0 270.93 270.93" xmlns="http://www.w3.org/2000/svg">
<path d="m135.46 67.732c-37.408 3e-6 -67.732 30.325-67.732 67.732 0.08127 5.4077 0.80992 10.786 2.1704 16.021 1.2432 0.14168 2.5287 0.26767 3.8891 0.34932 15.414 0.92518 39.007-1.5304 63.866-8.1911 24.858-6.6608 46.516-16.33 59.402-24.838 1.2154-0.80248 2.3402-1.6034 3.3936-2.3879-8.4556-28.854-34.921-48.68-64.988-48.685zm68.434 17.935c4.2145 5.7589 7.7385 12.117 10.422 18.984 1.8142 0.49778 3.4452 1.0418 4.8157 1.6304 4.6368 1.9913 5.9643 3.8774 6.2864 5.0792 0.32203 1.2018 0.11527 3.4992-2.9047 7.5421s-8.5811 9.0498-16.129 14.033c-15.095 9.9665-37.987 20-64.35 27.064-26.363 7.064-51.207 9.8216-69.263 8.7379-9.0279-0.54189-16.348-2.0978-20.985-4.0891-4.6368-1.9913-5.9649-3.8769-6.2869-5.0787-0.32203-1.2018-0.11475-3.4992 2.9052-7.5421 0.89298-1.1954 2.0339-2.4827 3.3569-3.8214-1.109-7.2895-1.2349-14.558-0.46405-21.653-6.819 4.8634-12.396 9.9039-16.458 15.342-4.8147 6.4456-7.7946 14.226-5.6962 22.058 2.0984 7.8314 8.5697 13.08 15.962 16.255 7.3925 3.1747 16.333 4.8144 26.65 5.4337 5.6776 0.34079 11.809 0.32312 18.246 0.0103a67.732 67.732 0 0 0 62.988 15.239 67.732 67.732 0 0 0 46.929-44.69c5.7313-2.9478 11.05-5.9985 15.797-9.1327 8.6256-5.6951 15.548-11.586 20.363-18.031 4.8147-6.4456 7.7946-14.226 5.6962-22.058-2.0984-7.8314-8.5697-13.08-15.962-16.255-6.2352-2.6777-13.584-4.254-21.919-5.0565z" fill="#fff" fill-rule="evenodd"/>
</svg>
