<svg width="16" height="16" viewBox="0 0 4.2333 4.2333" xmlns="http://www.w3.org/2000/svg">
<path transform="scale(.26458)" d="m4 0c-0.55228 0-1 0.44772-1 1v13h-1c-0.55228 0-1 0.44772-1 1s0.44772 1 1 1h4c0.55228 0 1-0.44772 1-1s-0.44772-1-1-1h-1v-4h9c0.55228 0 1-0.44772 1-1-3e-4 -0.27806-0.11636-0.54343-0.32031-0.73242l-2.7656-2.7676 2.7656-2.7676c0.20395-0.18899 0.32001-0.45437 0.32031-0.73242 0-0.55228-0.44772-1-1-1h-9c0-0.55228-0.44772-1-1-1zm1 3h6.5879l-2.502 2.5 2.502 2.5h-6.5879z"/>
</svg>
