<svg width="16" height="16" viewBox="0 0 4.2333 4.2333" xmlns="http://www.w3.org/2000/svg">
<path d="m1.3886 4.2328c.14612.000572.26504-.11742.26561-.26355-.0005696-.14612-.11949-.26412-.26561-.26355h-.13281v-1.0588h2.3828c.23671-8.23e-5.35423-.28715.18552-.4532l-.73845-.73793.73845-.73845c.16871-.16604.051197-.45311-.18552-.4532h-2.3828c-.0005666-.14532-.11823-.26298-.26355-.26355-.14612-.00057191-.26504.11742-.26561.26355v3.4416h-.13126c-.14612-.000572-.26504.11742-.26561.26355.00056884.14612.11949.26412.26561.26355z" fill="#fff"/>
</svg>
