<svg width="16" height="16" viewBox="0 0 4.2333 4.2333" xmlns="http://www.w3.org/2000/svg">
<path transform="scale(.26458)" d="m5 2c-1.6568 0-3 1.3432-3 3v1c0 0.55227-0.44773 1-1 1-0.55227 0-1 0.44773-1 1s0.44773 1 1 1c0.55227 0 1 0.44773 1 1v1c-1e-7 1.6568 1.3432 3 3 3 0.55227 0 1-0.44773 1-1s-0.44773-1-1-1-1-0.44773-1-1v-6c0-0.55227 0.44773-1 1-1 0.55227 0 1-0.44773 1-1 0-0.55227-0.44773-1-1-1zm6 0c-0.55227 0-1 0.44773-1 1 0 0.55227 0.44773 1 1 1s1 0.44773 1 1v6c0 0.55227-0.44773 1-1 1s-1 0.44773-1 1 0.44773 1 1 1c1.6568 0 3-1.3432 3-3v-1c0-0.55227 0.44773-1 1-1s1-0.44773 1-1-0.44773-1-1-1-1-0.44773-1-1v-1c0-1.6568-1.3432-3-3-3z"/>
</svg>
