<svg width="16" height="16" version="1.1" viewBox="0 0 4.2333 4.2333" xmlns="http://www.w3.org/2000/svg">
<path d="m2.9104 0.52916c0.43837-1e-7 0.79374 0.35537 0.79374 0.79374v0.26458c0 0.14612 0.11846 0.26458 0.26458 0.26458 0.14612 0 0.26458 0.11846 0.26458 0.26458s-0.11846 0.26458-0.26458 0.26458c-0.14612 0-0.26458 0.11846-0.26458 0.26458v0.26458c0 0.43837-0.35537 0.79374-0.79374 0.79374-0.14612 0-0.26458-0.11846-0.26458-0.26458 0-0.14612 0.11846-0.26458 0.26458-0.26458 0.14612 0 0.26458-0.11846 0.26458-0.26458v-1.5875c0-0.14612-0.11846-0.26458-0.26458-0.26458-0.14612 0-0.26458-0.11846-0.26458-0.26458 0-0.14612 0.11846-0.26458 0.26458-0.26458zm-1.5875 0c-0.43837-5e-8 -0.79374 0.35537-0.79374 0.79374v0.26458c0 0.14612-0.11846 0.26458-0.26458 0.26458-0.14612 0-0.26458 0.11846-0.26458 0.26458s0.11846 0.26458 0.26458 0.26458c0.14612 0 0.26458 0.11846 0.26458 0.26458v0.26458c-3e-8 0.43837 0.35537 0.79374 0.79374 0.79374 0.14612 0 0.26458-0.11846 0.26458-0.26458 0-0.14612-0.11846-0.26458-0.26458-0.26458-0.14612 0-0.26458-0.11846-0.26458-0.26458v-1.5875c0-0.14612 0.11846-0.26458 0.26458-0.26458 0.14612 0 0.26458-0.11846 0.26458-0.26458s-0.11846-0.26458-0.26458-0.26458z" fill="#fff"/>
</svg>
