<svg width="16" height="16" viewBox="0 0 16 16" xmlns="http://www.w3.org/2000/svg" fill="currentColor" class="icon">
    <path d="m11 2.0001c1.6568-1e-7 3 1.3431 3 3v2h1c0.55227 0 1 0.44773 1 1 0 0.55227-0.44773 1-1 1h-1v2c0 1.6568-1.3431 3-3 3-0.55227 0-1-0.44773-1-1 0-0.55227 0.44773-1 1-1s1-0.44772 1-0.99999v-6c0-0.55227-0.44773-1-1-1s-1-0.44773-1-1 0.44773-1 1-1zm-6 0c-1.6568-1e-7 -3 1.3431-3 3v2h-1c-0.55227 0-1 0.44773-1 1 0 0.55227 0.44773 1 1 1h1v2c0 1.6568 1.3431 3 3 3 0.55227 0 1-0.44773 1-1 0-0.55227-0.44773-1-1-1s-1-0.44772-1-0.99999v-6c0-0.55227 0.44773-1 1-1s1-0.44773 1-1-0.44773-1-1-1z"/>
</svg>
