<svg width="16" height="16" viewBox="0 0 4.2333 4.2333" xmlns="http://www.w3.org/2000/svg">
<path transform="scale(.26458)" d="m3 0c-1.662 2.9606e-16-3 1.338-3 3v10c2.9606e-16 1.662 1.338 3 3 3h10c1.662 0 3-1.338 3-3v-10c0-1.662-1.338-3-3-3h-10zm1.9414 2.7539c.019167-.0004912.039316 0 .058594 0a.75.75 0 01.75391.74023.75.75 0 01-.75391.75391c-.4231 0-.75195.32886-.75195.75195v1.4941c0 .57394-.21924 1.1044-.57812 1.5059l.0019531.0019531h-.0039062c.35889.40143.57812.93192.57812 1.5059v1.4941c0 .4231.32886.75195.75195.75195a.75.75 0 01.75391.75391.75.75 0 01-.75391.74024c-1.2338 0-2.2461-1.0123-2.2461-2.2461v-1.4941c0-.4231-.33081-.75391-.75391-.75391a.75.75 0 01-.75195-.75195.75.75 0 000-.0019531h.0019531a.75.75 0 01.75195-.75195c.4231-4e-7.75391-.33081.75391-.75391v-1.4941c1e-7-1.2145.97999-2.2151 2.1875-2.2461zm6.0586 0c.019276 1e-7.039428-.0004911.058594 0 1.2075.030951 2.1875 1.0316 2.1875 2.2461v1.4941c0 .4231.33081.75391.75391.75391a.75.75 0 01.75195.75195h.001953a.75.75 0 010 .0019531.75.75 0 01-.75195.75195c-.4231 5e-7-.75391.33081-.75391.75391v1.4941c0 1.2338-1.0123 2.2461-2.2461 2.2461a.75.75 0 01-.75391-.74024.75.75 0 01.75391-.75391c.4231 0 .75195-.32886.75195-.75195v-1.4941c0-.57394.21924-1.1044.57812-1.5059h-.003906l.001953-.0019531c-.3589-.40143-.57812-.93192-.57812-1.5059v-1.4941c0-.4231-.32886-.75195-.75195-.75195a.75.75 0 01-.75391-.75391.75.75 0 01.75391-.74023zm-3.002 2.248a1.0005 1 0 011.002.99805 1.0005 1 0 01-1.002 1.002 1.0005 1 0 01-1.002-1.002 1.0005 1 0 011.002-.99805zm0 3.998a1 1 0 011 1.002 1 1 0 01-1 1 1 1 0 01-.99805-1 1 1 0 01.99805-1.002z" fill="#fff"/>
</svg>
