<svg width="16" height="16" class="icon" fill="currentColor" version="1.1" viewBox="0 0 16 16" xmlns="http://www.w3.org/2000/svg">
    <path d="m3.0059 2a0.99999 0.99999 0 0 0-1 1 0.99999 0.99999 0 0 0 1 1h9.9805a0.99999 0.99999 0 0 0 1-1 0.99999 0.99999 0 0 0-1-1h-9.9805zm0.0039062 5a0.99999 0.99999 0 0 0-1 1 0.99999 0.99999 0 0 0 1 1h9.9805a0.99999 0.99999 0 0 0 1-1 0.99999 0.99999 0 0 0-1-1h-9.9805zm0 5a0.99999 0.99999 0 0 0-1 1 0.99999 0.99999 0 0 0 1 1h9.9805a0.99999 0.99999 0 0 0 1-1 0.99999 0.99999 0 0 0-1-1h-9.9805z"/>
</svg>
