<svg width="16" height="16" viewBox="0 0 16 16" xmlns="http://www.w3.org/2000/svg" fill="currentColor" class="icon">
    <path d="m5 10h2c.554 0 1 .446 1 1s-.446 1-1 1h-2c-.554 0-1-.446-1-1s.446-1 1-1zm0-3h6c.554 0 1 .446 1 1s-.446 1-1 1h-6c-.554 0-1-.446-1-1s.446-1 1-1zm0-3h6c.554 0 1 .446 1 1s-.446 1-1 1h-6c-.554 0-1-.446-1-1s.446-1 1-1zm-3-4c-1.108 0-2 .892-2 2v12c0 1.108.892 2 2 2h12c1.108 0 2-.892 2-2v-12c0-1.108-.892-2-2-2zm1 2h10c.554 0 1 .446 1 1v10c0 .554-.446 1-1 1h-10c-.554 0-1-.446-1-1v-10c0-.554.446-1 1-1z"/>
</svg>
